<svg width="708" height="412" xmlns="http://www.w3.org/2000/svg"><defs><linearGradient x1="0%" y1="50%" x2="100%" y2="50%" id="linearGradient-1"><stop stop-color="#81004c" stop-opacity=".472" offset="0%"/><stop stop-color="#9E005D " offset="63.33%"/><stop stop-color="#9E005D" offset="100%"/></linearGradient></defs><g id="Page-1" stroke="none" stroke-width="1" fill="none" fill-rule="evenodd"><g id="12.9″-iPad-Pro" transform="translate(0 -234)" stroke="url(#linearGradient-1)" stroke-width="40"><path d="M.5 487c38.936 0 70.5 31.564 70.5 70.5S39.436 628 .5 628-70 596.436-70 557.5-38.436 487 .5 487zm373 0c38.936 0 70.5 31.564 70.5 70.5S412.436 628 373.5 628 303 596.436 303 557.5s31.564-70.5 70.5-70.5zm-190-179c38.936 0 70.5 31.564 70.5 70.5S222.436 449 183.5 449 113 417.436 113 378.5s31.564-70.5 70.5-70.5zM42 518l90.865-93.865M420 517.9l273.744-268.775M327 518l-90.865-93.865" id="Combined-Shape"/></g></g></svg>