<svg width="525" height="566" xmlns="http://www.w3.org/2000/svg"><defs><linearGradient x1="0%" y1="50%" x2="100%" y2="50%" id="linearGradient-1"><stop stop-color="#9E005D" offset="0%"/><stop stop-color="#81004c" offset="100%"/></linearGradient></defs><g id="Page-1" stroke="none" stroke-width="1" fill="none" fill-rule="evenodd"><g id="12.9″-iPad-Pro" transform="translate(0 -80)" fill="url(#linearGradient-1)" fill-rule="nonzero"><g id="Group" transform="translate(-79 80)"><path d="M37.284 0c20.284 0 36.785 16.198 37.273 36.365l.01.919c0 269.088 215.958 487.736 484.01 492.082l8.139.066c20.591 0 37.284 16.693 37.284 37.284C604 587.307 587.307 604 566.716 604 253.727 604 0 350.273 0 37.284 0 16.693 16.693 0 37.284 0z" id="Path" transform="rotate(90 302 302)"/><path d="M253.29 249c20.287 0 36.79 16.2 37.279 36.37l.01.92c0 132.934 106.688 240.95 239.11 243.098l4.021.032c20.595 0 37.29 16.695 37.29 37.29S554.305 604 533.71 604C358.244 604 216 461.756 216 286.29c0-20.595 16.695-37.29 37.29-37.29z" id="Path-Copy-2" transform="rotate(90 393.5 426.5)"/></g></g></g></svg>